# xmcd CD database file
#
# Track frame offsets:
#	150
#	21152
#	47904
#	66387
#	87957
#	113757
#	131188
#	159666
#	170138
#	192568
#	214285
#	230087
#	252464
#	278378
#	302770
#
# Disc length: 4387 seconds
#
# Revision: 0
# Processed by: cddbd v1.4PL0 Copyright (c) Steve Scherf et al.
# Submitted via: CDex 1.50
#
DISCID=e511210f
DTITLE=Diana Krall - Love Scenes
DYEAR=1997
DGENRE=Jazz
TTITLE0=All Or Nothing At All
TTITLE1=Peel Me A Grape
TTITLE2=I Don't Know Enough About You
TTITLE3=I Miss You So
TTITLE4=They Can't Take That Away From Me
TTITLE5=Lost Mind
TTITLE6=I Don't Stand A Ghost Of A Chance With You
TTITLE7=You're Getting To Be A Habit With Me
TTITLE8=Gentle Rain
TTITLE9=How Deep Is The Ocean (How High Is The Sky)
TTITLE10=My Love Is
TTITLE11=Garden In The Rain
TTITLE12=some spanish song
TTITLE13=some other spanish song
TTITLE14=another spanish song
EXTD=YEAR: 1997
EXTT0=
EXTT1=
EXTT2=
EXTT3=
EXTT4=
EXTT5=
EXTT6=
EXTT7=
EXTT8=
EXTT9=
EXTT10=
EXTT11=
EXTT12=
EXTT13=
EXTT14=
PLAYORDER=
